<svg width="689" height="379" viewBox="0 0 689 379" fill="none" xmlns="http://www.w3.org/2000/svg">
<path d="M36 111L126.5 19H671V103L577 196.5V244H36V111Z" fill="white"/>
<path d="M122.645 4.00001L121.401 3.99721L120.52 4.87596L3.88141 121.215L3 122.094V123.339V371.257V374.257H6H243.438H287.666H290.642H293.666H335.617H361.264H395.444H395.459L466.388 374.966L465.625 380.846L471.086 375.013L472.43 375.026L472.648 373.345L590.101 247.885L590.911 247.02V245.834V200.783L684.148 108.043L685.033 107.164V105.916V7.01933V4.01933H682.033H491.399V4.01406L488.399 4.01933H488.396H485.399V4.02459L287.742 4.37169L287.736 4.3717L122.645 4.00001ZM100.795 115.528H97.7951V118.528V240.689H35.0574V108.052L126.857 15.993H280.422V240.689H218.807V119.43V116.43H215.807H193.569H190.569V119.43V240.689H126.034V118.528V115.528H123.034H100.795ZM415.999 182.288L417.27 181.391V179.836V15.993H480.906V194.043L420.088 240.689H383.857L324.341 194.062V15.993H387.459V179.836V181.359L388.688 182.258L400.379 190.807L402.118 192.078L403.879 190.836L415.999 182.288ZM580.616 197.421L579.745 198.299V199.536V242.834H517.456V15.993H674.54V102.877L580.616 197.421ZM582.708 49.6296H579.708V52.6296V129.733V132.733H582.708H600.454H603.454V129.733V52.6296V49.6296H600.454H582.708Z" fill="black" stroke="black" stroke-width="6"/>
<mask id="path-3-outside-1_447_14" maskUnits="userSpaceOnUse" x="27.2909" y="244.316" width="446" height="124" fill="black">
<rect fill="white" x="27.2909" y="244.316" width="446" height="124"/>
<path d="M49.8038 334.339C50.8788 335.409 52.0335 336.321 53.2678 337.073C54.5419 337.787 55.7563 338.381 56.9109 338.857C58.0656 339.292 59.0809 339.609 59.9568 339.808C60.8328 340.006 61.43 340.105 61.7485 340.105C62.505 340.105 63.4606 340.085 64.6153 340.045C65.8098 339.966 66.9445 339.788 68.0195 339.51C69.0946 339.193 70.0103 338.698 70.7668 338.024C71.5632 337.351 71.9613 336.4 71.9613 335.171C71.9613 334.062 71.7423 333.19 71.3044 332.556C70.8664 331.883 70.2293 331.328 69.3932 330.892C68.5571 330.416 67.5218 330 66.2876 329.644C65.0931 329.287 63.7393 328.871 62.2263 328.396C57.4484 327.128 53.5067 325.602 50.401 323.819C47.2954 322.036 44.8268 320.055 42.9953 317.875C41.2036 315.656 39.9494 313.279 39.2327 310.743C38.516 308.207 38.1576 305.532 38.1576 302.719C38.1576 299.43 38.8146 296.438 40.1285 293.744C41.4424 291.049 43.3138 288.751 45.7426 286.849C48.1713 284.907 51.0779 283.421 54.4622 282.391C57.8466 281.321 61.6092 280.786 65.75 280.786C68.2584 280.786 70.6076 281.004 72.7974 281.44C74.9873 281.836 77.0777 282.49 79.0685 283.401C81.0592 284.273 82.9903 285.422 84.8617 286.849C86.7728 288.236 88.6641 289.9 90.5354 291.842C91.2123 292.634 91.5507 293.387 91.5507 294.1C91.5905 294.774 91.1526 295.507 90.2368 296.299C88.684 297.567 87.1909 298.816 85.7575 300.044C84.364 301.272 82.9107 302.639 81.3977 304.145C80.9199 304.541 80.4421 304.799 79.9643 304.918C79.4865 304.997 79.0286 304.977 78.5907 304.858C78.1527 304.74 77.7346 304.541 77.3365 304.264C76.9383 303.987 76.58 303.65 76.2614 303.254C74.8679 301.708 73.2752 300.678 71.4835 300.163C69.6918 299.608 68.0195 299.331 66.4667 299.331C64.5157 299.331 62.9629 299.668 61.8083 300.341C60.6536 301.015 60.1161 302.045 60.1957 303.432C60.2754 304.462 60.6536 305.274 61.3305 305.869C62.0472 306.424 62.9032 306.879 63.8986 307.236C64.9338 307.592 66.0088 307.89 67.1237 308.127C68.2783 308.326 69.3335 308.563 70.2891 308.841C73.8725 309.99 77.1573 311.238 80.1435 312.585C83.1297 313.932 85.7177 315.597 87.9076 317.578C90.0974 319.52 91.7896 321.857 92.9841 324.592C94.2184 327.326 94.8355 330.654 94.8355 334.577C94.8355 338.5 94.0392 342.007 92.4466 345.098C90.8938 348.188 88.7437 350.784 85.9964 352.884C83.2491 354.984 79.9842 356.589 76.2017 357.698C72.459 358.808 68.4177 359.363 64.0778 359.363C61.6092 359.363 59.1008 359.145 56.5526 358.709C54.0044 358.273 51.5358 357.579 49.1468 356.628C46.7579 355.638 44.4884 354.39 42.3383 352.884C40.1882 351.338 38.2771 349.476 36.6048 347.297C36.1668 346.742 35.8284 346.167 35.5895 345.573C35.3904 344.939 35.2909 344.325 35.2909 343.73C35.3307 343.136 35.4502 342.601 35.6492 342.126C35.8881 341.611 36.2465 341.175 36.7243 340.818L44.4286 333.151C45.3842 332.358 46.2204 332.081 46.937 332.318C47.6935 332.556 48.6491 333.23 49.8038 334.339Z"/>
<path d="M117.431 270.563C117.431 269.335 117.829 268.423 118.625 267.829C119.462 267.195 120.636 266.6 122.149 266.046L135.706 261.35C135.906 261.311 136.085 261.291 136.244 261.291C136.443 261.291 136.622 261.291 136.781 261.291C138.255 261.291 139.23 261.727 139.708 262.598C140.226 263.43 140.484 264.54 140.484 265.927L140.425 282.272H148.607C149.881 282.272 150.916 282.649 151.712 283.401C152.509 284.154 152.907 285.284 152.907 286.789V298.261C152.907 299.925 152.509 301.153 151.712 301.946C150.916 302.699 149.881 303.075 148.607 303.075H140.425L140.484 353.24C140.484 354.746 140.046 355.895 139.17 356.688C138.294 357.441 137.08 357.817 135.527 357.817H122.03C118.964 357.817 117.431 356.292 117.431 353.24L117.371 303.075H111.22C108.154 303.075 106.621 301.47 106.621 298.261V286.789C106.621 283.778 108.154 282.272 111.22 282.272H117.371L117.431 270.563Z"/>
<path d="M238.289 356.807C237.771 357.243 237.214 357.52 236.616 357.639C236.059 357.758 235.521 357.817 235.004 357.817H225.986C225.269 357.817 224.652 357.698 224.134 357.461C223.617 357.183 223.179 356.827 222.82 356.391C222.462 355.955 222.163 355.459 221.924 354.905C221.685 354.35 221.486 353.775 221.327 353.181L220.073 347.356C219.476 348.585 218.48 349.892 217.087 351.279C215.693 352.626 213.961 353.874 211.891 355.024C209.86 356.173 207.511 357.124 204.843 357.877C202.176 358.629 199.269 359.006 196.124 359.006C191.585 359.006 187.563 358.134 184.059 356.391C180.556 354.647 177.589 352.27 175.161 349.258C172.772 346.247 170.96 342.74 169.726 338.738C168.491 334.696 167.874 330.397 167.874 325.84V306.374V286.908C167.874 285.403 168.193 284.273 168.83 283.52C169.507 282.728 170.562 282.332 171.995 282.332H185.791C187.503 282.332 188.678 282.629 189.315 283.223C189.952 283.778 190.271 284.887 190.271 286.552V325.245C190.271 326.949 190.589 328.574 191.226 330.119C191.903 331.625 192.799 332.972 193.914 334.161C195.029 335.31 196.323 336.222 197.796 336.895C199.309 337.569 200.902 337.906 202.574 337.906C204.007 337.906 205.56 337.668 207.232 337.192C208.905 336.717 210.457 335.984 211.891 334.993C213.324 333.963 214.519 332.655 215.474 331.07C216.43 329.485 216.908 327.583 216.908 325.364V286.73C216.908 286.056 217.027 285.383 217.266 284.709C217.545 284.035 217.943 283.52 218.46 283.164C218.978 282.847 219.456 282.629 219.894 282.51C220.372 282.391 220.909 282.332 221.506 282.332H235.004C236.716 282.332 237.95 282.748 238.707 283.58C239.463 284.412 239.841 285.521 239.841 286.908V353.419C239.841 354.172 239.662 354.865 239.304 355.499C238.985 356.133 238.528 356.628 237.93 356.985L238.289 356.807Z"/>
<path d="M311.217 350.387C310.142 351.457 308.908 352.527 307.515 353.597C306.161 354.627 304.668 355.559 303.035 356.391C301.443 357.223 299.711 357.896 297.839 358.412C296.008 358.927 294.057 359.184 291.986 359.184C286.571 359.184 281.575 358.174 276.996 356.153C272.457 354.132 268.535 351.378 265.23 347.891C261.965 344.364 259.397 340.224 257.526 335.469C255.694 330.714 254.778 325.602 254.778 320.134C254.778 314.626 255.694 309.514 257.526 304.799C259.397 300.044 261.965 295.923 265.23 292.436C268.535 288.909 272.457 286.155 276.996 284.174C281.575 282.153 286.571 281.143 291.986 281.143C294.176 281.143 296.167 281.341 297.959 281.737C299.79 282.094 301.443 282.629 302.916 283.342C304.429 284.055 305.802 284.907 307.037 285.898C308.311 286.888 309.505 287.978 310.62 289.167V264.381C310.62 263.113 310.998 262.044 311.755 261.172C312.551 260.3 313.726 259.864 315.279 259.864H328.716C329.234 259.864 329.772 259.983 330.329 260.221C330.926 260.419 331.464 260.716 331.942 261.112C332.419 261.509 332.798 261.984 333.076 262.539C333.395 263.094 333.554 263.708 333.554 264.381V353.24C333.554 356.292 331.942 357.817 328.716 357.817H317.011C316.214 357.817 315.597 357.718 315.159 357.52C314.721 357.322 314.343 357.044 314.024 356.688C313.746 356.292 313.487 355.816 313.248 355.261C313.009 354.667 312.711 353.993 312.352 353.24L311.217 350.387ZM276.279 320.134C276.279 322.749 276.677 325.206 277.473 327.504C278.31 329.763 279.484 331.724 280.997 333.388C282.51 335.053 284.322 336.38 286.432 337.371C288.582 338.322 290.951 338.797 293.539 338.797C296.087 338.797 298.476 338.341 300.706 337.43C302.976 336.519 304.946 335.271 306.619 333.686C308.291 332.061 309.625 330.159 310.62 327.98C311.655 325.8 312.233 323.462 312.352 320.966V320.134C312.352 317.598 311.874 315.181 310.919 312.882C309.963 310.584 308.629 308.563 306.917 306.82C305.245 305.076 303.254 303.709 300.945 302.719C298.675 301.688 296.207 301.173 293.539 301.173C290.951 301.173 288.582 301.688 286.432 302.719C284.322 303.709 282.51 305.076 280.997 306.82C279.484 308.563 278.31 310.584 277.473 312.882C276.677 315.181 276.279 317.598 276.279 320.134Z"/>
<path d="M348.633 286.968C348.633 285.7 348.991 284.61 349.708 283.699C350.425 282.787 351.539 282.332 353.052 282.332H366.729C367.207 282.332 367.725 282.45 368.282 282.688C368.839 282.886 369.357 283.203 369.835 283.639C370.313 284.035 370.711 284.511 371.029 285.066C371.388 285.62 371.567 286.254 371.567 286.968V353.24C371.567 354.746 371.149 355.895 370.313 356.688C369.477 357.441 368.282 357.817 366.729 357.817H353.052C350.106 357.817 348.633 356.292 348.633 353.24V320.104V286.968ZM348.633 256.892C348.633 255.228 348.991 254.059 349.708 253.386C350.425 252.672 351.539 252.316 353.052 252.316H366.908C368.302 252.316 369.417 252.672 370.253 253.386C371.129 254.059 371.567 255.228 371.567 256.892V268.483C371.567 268.958 371.447 269.473 371.208 270.028C371.009 270.583 370.711 271.118 370.313 271.633C369.914 272.148 369.417 272.584 368.82 272.94C368.262 273.257 367.625 273.416 366.908 273.416H353.052C350.106 273.416 348.633 271.772 348.633 268.483V256.892Z"/>
<path d="M386.548 320.134C386.548 316.488 387.006 312.981 387.921 309.613C388.877 306.245 390.191 303.135 391.863 300.282C393.575 297.389 395.606 294.774 397.955 292.436C400.344 290.058 402.992 288.038 405.898 286.373C408.805 284.709 411.93 283.421 415.275 282.51C418.659 281.599 422.183 281.143 425.846 281.143C431.261 281.143 436.337 282.153 441.075 284.174C445.853 286.155 449.994 288.909 453.498 292.436C457.042 295.923 459.829 300.044 461.859 304.799C463.93 309.514 464.965 314.626 464.965 320.134C464.965 323.779 464.487 327.286 463.532 330.654C462.616 333.983 461.302 337.093 459.59 339.986C457.918 342.879 455.887 345.514 453.498 347.891C451.149 350.229 448.521 352.25 445.614 353.954C442.708 355.618 439.582 356.906 436.238 357.817C432.933 358.729 429.469 359.184 425.846 359.184C422.183 359.184 418.659 358.729 415.275 357.817C411.93 356.906 408.805 355.618 405.898 353.954C402.992 352.25 400.344 350.229 397.955 347.891C395.606 345.514 393.575 342.879 391.863 339.986C390.191 337.093 388.877 333.983 387.921 330.654C387.006 327.286 386.548 323.779 386.548 320.134ZM408.347 320.134C408.347 322.749 408.745 325.206 409.541 327.504C410.377 329.763 411.532 331.724 413.005 333.388C414.518 335.053 416.33 336.38 418.44 337.371C420.59 338.322 422.999 338.797 425.667 338.797C428.255 338.797 430.584 338.322 432.654 337.371C434.765 336.38 436.536 335.053 437.97 333.388C439.443 331.724 440.558 329.763 441.314 327.504C442.111 325.206 442.509 322.749 442.509 320.134C442.509 317.598 442.111 315.181 441.314 312.882C440.558 310.584 439.443 308.563 437.97 306.82C436.536 305.076 434.765 303.709 432.654 302.719C430.584 301.688 428.255 301.173 425.667 301.173C422.999 301.173 420.59 301.688 418.44 302.719C416.33 303.709 414.518 305.076 413.005 306.82C411.532 308.563 410.377 310.584 409.541 312.882C408.745 315.181 408.347 317.598 408.347 320.134Z"/>
</mask>
<path d="M49.8038 334.339C50.8788 335.409 52.0335 336.321 53.2678 337.073C54.5419 337.787 55.7563 338.381 56.9109 338.857C58.0656 339.292 59.0809 339.609 59.9568 339.808C60.8328 340.006 61.43 340.105 61.7485 340.105C62.505 340.105 63.4606 340.085 64.6153 340.045C65.8098 339.966 66.9445 339.788 68.0195 339.51C69.0946 339.193 70.0103 338.698 70.7668 338.024C71.5632 337.351 71.9613 336.4 71.9613 335.171C71.9613 334.062 71.7423 333.19 71.3044 332.556C70.8664 331.883 70.2293 331.328 69.3932 330.892C68.5571 330.416 67.5218 330 66.2876 329.644C65.0931 329.287 63.7393 328.871 62.2263 328.396C57.4484 327.128 53.5067 325.602 50.401 323.819C47.2954 322.036 44.8268 320.055 42.9953 317.875C41.2036 315.656 39.9494 313.279 39.2327 310.743C38.516 308.207 38.1576 305.532 38.1576 302.719C38.1576 299.43 38.8146 296.438 40.1285 293.744C41.4424 291.049 43.3138 288.751 45.7426 286.849C48.1713 284.907 51.0779 283.421 54.4622 282.391C57.8466 281.321 61.6092 280.786 65.75 280.786C68.2584 280.786 70.6076 281.004 72.7974 281.44C74.9873 281.836 77.0777 282.49 79.0685 283.401C81.0592 284.273 82.9903 285.422 84.8617 286.849C86.7728 288.236 88.6641 289.9 90.5354 291.842C91.2123 292.634 91.5507 293.387 91.5507 294.1C91.5905 294.774 91.1526 295.507 90.2368 296.299C88.684 297.567 87.1909 298.816 85.7575 300.044C84.364 301.272 82.9107 302.639 81.3977 304.145C80.9199 304.541 80.4421 304.799 79.9643 304.918C79.4865 304.997 79.0286 304.977 78.5907 304.858C78.1527 304.74 77.7346 304.541 77.3365 304.264C76.9383 303.987 76.58 303.65 76.2614 303.254C74.8679 301.708 73.2752 300.678 71.4835 300.163C69.6918 299.608 68.0195 299.331 66.4667 299.331C64.5157 299.331 62.9629 299.668 61.8083 300.341C60.6536 301.015 60.1161 302.045 60.1957 303.432C60.2754 304.462 60.6536 305.274 61.3305 305.869C62.0472 306.424 62.9032 306.879 63.8986 307.236C64.9338 307.592 66.0088 307.89 67.1237 308.127C68.2783 308.326 69.3335 308.563 70.2891 308.841C73.8725 309.99 77.1573 311.238 80.1435 312.585C83.1297 313.932 85.7177 315.597 87.9076 317.578C90.0974 319.52 91.7896 321.857 92.9841 324.592C94.2184 327.326 94.8355 330.654 94.8355 334.577C94.8355 338.5 94.0392 342.007 92.4466 345.098C90.8938 348.188 88.7437 350.784 85.9964 352.884C83.2491 354.984 79.9842 356.589 76.2017 357.698C72.459 358.808 68.4177 359.363 64.0778 359.363C61.6092 359.363 59.1008 359.145 56.5526 358.709C54.0044 358.273 51.5358 357.579 49.1468 356.628C46.7579 355.638 44.4884 354.39 42.3383 352.884C40.1882 351.338 38.2771 349.476 36.6048 347.297C36.1668 346.742 35.8284 346.167 35.5895 345.573C35.3904 344.939 35.2909 344.325 35.2909 343.73C35.3307 343.136 35.4502 342.601 35.6492 342.126C35.8881 341.611 36.2465 341.175 36.7243 340.818L44.4286 333.151C45.3842 332.358 46.2204 332.081 46.937 332.318C47.6935 332.556 48.6491 333.23 49.8038 334.339Z" fill="white"/>
<path d="M117.431 270.563C117.431 269.335 117.829 268.423 118.625 267.829C119.462 267.195 120.636 266.6 122.149 266.046L135.706 261.35C135.906 261.311 136.085 261.291 136.244 261.291C136.443 261.291 136.622 261.291 136.781 261.291C138.255 261.291 139.23 261.727 139.708 262.598C140.226 263.43 140.484 264.54 140.484 265.927L140.425 282.272H148.607C149.881 282.272 150.916 282.649 151.712 283.401C152.509 284.154 152.907 285.284 152.907 286.789V298.261C152.907 299.925 152.509 301.153 151.712 301.946C150.916 302.699 149.881 303.075 148.607 303.075H140.425L140.484 353.24C140.484 354.746 140.046 355.895 139.17 356.688C138.294 357.441 137.08 357.817 135.527 357.817H122.03C118.964 357.817 117.431 356.292 117.431 353.24L117.371 303.075H111.22C108.154 303.075 106.621 301.47 106.621 298.261V286.789C106.621 283.778 108.154 282.272 111.22 282.272H117.371L117.431 270.563Z" fill="white"/>
<path d="M238.289 356.807C237.771 357.243 237.214 357.52 236.616 357.639C236.059 357.758 235.521 357.817 235.004 357.817H225.986C225.269 357.817 224.652 357.698 224.134 357.461C223.617 357.183 223.179 356.827 222.82 356.391C222.462 355.955 222.163 355.459 221.924 354.905C221.685 354.35 221.486 353.775 221.327 353.181L220.073 347.356C219.476 348.585 218.48 349.892 217.087 351.279C215.693 352.626 213.961 353.874 211.891 355.024C209.86 356.173 207.511 357.124 204.843 357.877C202.176 358.629 199.269 359.006 196.124 359.006C191.585 359.006 187.563 358.134 184.059 356.391C180.556 354.647 177.589 352.27 175.161 349.258C172.772 346.247 170.96 342.74 169.726 338.738C168.491 334.696 167.874 330.397 167.874 325.84V306.374V286.908C167.874 285.403 168.193 284.273 168.83 283.52C169.507 282.728 170.562 282.332 171.995 282.332H185.791C187.503 282.332 188.678 282.629 189.315 283.223C189.952 283.778 190.271 284.887 190.271 286.552V325.245C190.271 326.949 190.589 328.574 191.226 330.119C191.903 331.625 192.799 332.972 193.914 334.161C195.029 335.31 196.323 336.222 197.796 336.895C199.309 337.569 200.902 337.906 202.574 337.906C204.007 337.906 205.56 337.668 207.232 337.192C208.905 336.717 210.457 335.984 211.891 334.993C213.324 333.963 214.519 332.655 215.474 331.07C216.43 329.485 216.908 327.583 216.908 325.364V286.73C216.908 286.056 217.027 285.383 217.266 284.709C217.545 284.035 217.943 283.52 218.46 283.164C218.978 282.847 219.456 282.629 219.894 282.51C220.372 282.391 220.909 282.332 221.506 282.332H235.004C236.716 282.332 237.95 282.748 238.707 283.58C239.463 284.412 239.841 285.521 239.841 286.908V353.419C239.841 354.172 239.662 354.865 239.304 355.499C238.985 356.133 238.528 356.628 237.93 356.985L238.289 356.807Z" fill="white"/>
<path d="M311.217 350.387C310.142 351.457 308.908 352.527 307.515 353.597C306.161 354.627 304.668 355.559 303.035 356.391C301.443 357.223 299.711 357.896 297.839 358.412C296.008 358.927 294.057 359.184 291.986 359.184C286.571 359.184 281.575 358.174 276.996 356.153C272.457 354.132 268.535 351.378 265.23 347.891C261.965 344.364 259.397 340.224 257.526 335.469C255.694 330.714 254.778 325.602 254.778 320.134C254.778 314.626 255.694 309.514 257.526 304.799C259.397 300.044 261.965 295.923 265.23 292.436C268.535 288.909 272.457 286.155 276.996 284.174C281.575 282.153 286.571 281.143 291.986 281.143C294.176 281.143 296.167 281.341 297.959 281.737C299.79 282.094 301.443 282.629 302.916 283.342C304.429 284.055 305.802 284.907 307.037 285.898C308.311 286.888 309.505 287.978 310.62 289.167V264.381C310.62 263.113 310.998 262.044 311.755 261.172C312.551 260.3 313.726 259.864 315.279 259.864H328.716C329.234 259.864 329.772 259.983 330.329 260.221C330.926 260.419 331.464 260.716 331.942 261.112C332.419 261.509 332.798 261.984 333.076 262.539C333.395 263.094 333.554 263.708 333.554 264.381V353.24C333.554 356.292 331.942 357.817 328.716 357.817H317.011C316.214 357.817 315.597 357.718 315.159 357.52C314.721 357.322 314.343 357.044 314.024 356.688C313.746 356.292 313.487 355.816 313.248 355.261C313.009 354.667 312.711 353.993 312.352 353.24L311.217 350.387ZM276.279 320.134C276.279 322.749 276.677 325.206 277.473 327.504C278.31 329.763 279.484 331.724 280.997 333.388C282.51 335.053 284.322 336.38 286.432 337.371C288.582 338.322 290.951 338.797 293.539 338.797C296.087 338.797 298.476 338.341 300.706 337.43C302.976 336.519 304.946 335.271 306.619 333.686C308.291 332.061 309.625 330.159 310.62 327.98C311.655 325.8 312.233 323.462 312.352 320.966V320.134C312.352 317.598 311.874 315.181 310.919 312.882C309.963 310.584 308.629 308.563 306.917 306.82C305.245 305.076 303.254 303.709 300.945 302.719C298.675 301.688 296.207 301.173 293.539 301.173C290.951 301.173 288.582 301.688 286.432 302.719C284.322 303.709 282.51 305.076 280.997 306.82C279.484 308.563 278.31 310.584 277.473 312.882C276.677 315.181 276.279 317.598 276.279 320.134Z" fill="white"/>
<path d="M348.633 286.968C348.633 285.7 348.991 284.61 349.708 283.699C350.425 282.787 351.539 282.332 353.052 282.332H366.729C367.207 282.332 367.725 282.45 368.282 282.688C368.839 282.886 369.357 283.203 369.835 283.639C370.313 284.035 370.711 284.511 371.029 285.066C371.388 285.62 371.567 286.254 371.567 286.968V353.24C371.567 354.746 371.149 355.895 370.313 356.688C369.477 357.441 368.282 357.817 366.729 357.817H353.052C350.106 357.817 348.633 356.292 348.633 353.24V320.104V286.968ZM348.633 256.892C348.633 255.228 348.991 254.059 349.708 253.386C350.425 252.672 351.539 252.316 353.052 252.316H366.908C368.302 252.316 369.417 252.672 370.253 253.386C371.129 254.059 371.567 255.228 371.567 256.892V268.483C371.567 268.958 371.447 269.473 371.208 270.028C371.009 270.583 370.711 271.118 370.313 271.633C369.914 272.148 369.417 272.584 368.82 272.94C368.262 273.257 367.625 273.416 366.908 273.416H353.052C350.106 273.416 348.633 271.772 348.633 268.483V256.892Z" fill="white"/>
<path d="M386.548 320.134C386.548 316.488 387.006 312.981 387.921 309.613C388.877 306.245 390.191 303.135 391.863 300.282C393.575 297.389 395.606 294.774 397.955 292.436C400.344 290.058 402.992 288.038 405.898 286.373C408.805 284.709 411.93 283.421 415.275 282.51C418.659 281.599 422.183 281.143 425.846 281.143C431.261 281.143 436.337 282.153 441.075 284.174C445.853 286.155 449.994 288.909 453.498 292.436C457.042 295.923 459.829 300.044 461.859 304.799C463.93 309.514 464.965 314.626 464.965 320.134C464.965 323.779 464.487 327.286 463.532 330.654C462.616 333.983 461.302 337.093 459.59 339.986C457.918 342.879 455.887 345.514 453.498 347.891C451.149 350.229 448.521 352.25 445.614 353.954C442.708 355.618 439.582 356.906 436.238 357.817C432.933 358.729 429.469 359.184 425.846 359.184C422.183 359.184 418.659 358.729 415.275 357.817C411.93 356.906 408.805 355.618 405.898 353.954C402.992 352.25 400.344 350.229 397.955 347.891C395.606 345.514 393.575 342.879 391.863 339.986C390.191 337.093 388.877 333.983 387.921 330.654C387.006 327.286 386.548 323.779 386.548 320.134ZM408.347 320.134C408.347 322.749 408.745 325.206 409.541 327.504C410.377 329.763 411.532 331.724 413.005 333.388C414.518 335.053 416.33 336.38 418.44 337.371C420.59 338.322 422.999 338.797 425.667 338.797C428.255 338.797 430.584 338.322 432.654 337.371C434.765 336.38 436.536 335.053 437.97 333.388C439.443 331.724 440.558 329.763 441.314 327.504C442.111 325.206 442.509 322.749 442.509 320.134C442.509 317.598 442.111 315.181 441.314 312.882C440.558 310.584 439.443 308.563 437.97 306.82C436.536 305.076 434.765 303.709 432.654 302.719C430.584 301.688 428.255 301.173 425.667 301.173C422.999 301.173 420.59 301.688 418.44 302.719C416.33 303.709 414.518 305.076 413.005 306.82C411.532 308.563 410.377 310.584 409.541 312.882C408.745 315.181 408.347 317.598 408.347 320.134Z" fill="white"/>
<path d="M49.8038 334.339C50.8788 335.409 52.0335 336.321 53.2678 337.073C54.5419 337.787 55.7563 338.381 56.9109 338.857C58.0656 339.292 59.0809 339.609 59.9568 339.808C60.8328 340.006 61.43 340.105 61.7485 340.105C62.505 340.105 63.4606 340.085 64.6153 340.045C65.8098 339.966 66.9445 339.788 68.0195 339.51C69.0946 339.193 70.0103 338.698 70.7668 338.024C71.5632 337.351 71.9613 336.4 71.9613 335.171C71.9613 334.062 71.7423 333.19 71.3044 332.556C70.8664 331.883 70.2293 331.328 69.3932 330.892C68.5571 330.416 67.5218 330 66.2876 329.644C65.0931 329.287 63.7393 328.871 62.2263 328.396C57.4484 327.128 53.5067 325.602 50.401 323.819C47.2954 322.036 44.8268 320.055 42.9953 317.875C41.2036 315.656 39.9494 313.279 39.2327 310.743C38.516 308.207 38.1576 305.532 38.1576 302.719C38.1576 299.43 38.8146 296.438 40.1285 293.744C41.4424 291.049 43.3138 288.751 45.7426 286.849C48.1713 284.907 51.0779 283.421 54.4622 282.391C57.8466 281.321 61.6092 280.786 65.75 280.786C68.2584 280.786 70.6076 281.004 72.7974 281.44C74.9873 281.836 77.0777 282.49 79.0685 283.401C81.0592 284.273 82.9903 285.422 84.8617 286.849C86.7728 288.236 88.6641 289.9 90.5354 291.842C91.2123 292.634 91.5507 293.387 91.5507 294.1C91.5905 294.774 91.1526 295.507 90.2368 296.299C88.684 297.567 87.1909 298.816 85.7575 300.044C84.364 301.272 82.9107 302.639 81.3977 304.145C80.9199 304.541 80.4421 304.799 79.9643 304.918C79.4865 304.997 79.0286 304.977 78.5907 304.858C78.1527 304.74 77.7346 304.541 77.3365 304.264C76.9383 303.987 76.58 303.65 76.2614 303.254C74.8679 301.708 73.2752 300.678 71.4835 300.163C69.6918 299.608 68.0195 299.331 66.4667 299.331C64.5157 299.331 62.9629 299.668 61.8083 300.341C60.6536 301.015 60.1161 302.045 60.1957 303.432C60.2754 304.462 60.6536 305.274 61.3305 305.869C62.0472 306.424 62.9032 306.879 63.8986 307.236C64.9338 307.592 66.0088 307.89 67.1237 308.127C68.2783 308.326 69.3335 308.563 70.2891 308.841C73.8725 309.99 77.1573 311.238 80.1435 312.585C83.1297 313.932 85.7177 315.597 87.9076 317.578C90.0974 319.52 91.7896 321.857 92.9841 324.592C94.2184 327.326 94.8355 330.654 94.8355 334.577C94.8355 338.5 94.0392 342.007 92.4466 345.098C90.8938 348.188 88.7437 350.784 85.9964 352.884C83.2491 354.984 79.9842 356.589 76.2017 357.698C72.459 358.808 68.4177 359.363 64.0778 359.363C61.6092 359.363 59.1008 359.145 56.5526 358.709C54.0044 358.273 51.5358 357.579 49.1468 356.628C46.7579 355.638 44.4884 354.39 42.3383 352.884C40.1882 351.338 38.2771 349.476 36.6048 347.297C36.1668 346.742 35.8284 346.167 35.5895 345.573C35.3904 344.939 35.2909 344.325 35.2909 343.73C35.3307 343.136 35.4502 342.601 35.6492 342.126C35.8881 341.611 36.2465 341.175 36.7243 340.818L44.4286 333.151C45.3842 332.358 46.2204 332.081 46.937 332.318C47.6935 332.556 48.6491 333.23 49.8038 334.339Z" stroke="black" stroke-width="16" mask="url(#path-3-outside-1_447_14)"/>
<path d="M117.431 270.563C117.431 269.335 117.829 268.423 118.625 267.829C119.462 267.195 120.636 266.6 122.149 266.046L135.706 261.35C135.906 261.311 136.085 261.291 136.244 261.291C136.443 261.291 136.622 261.291 136.781 261.291C138.255 261.291 139.23 261.727 139.708 262.598C140.226 263.43 140.484 264.54 140.484 265.927L140.425 282.272H148.607C149.881 282.272 150.916 282.649 151.712 283.401C152.509 284.154 152.907 285.284 152.907 286.789V298.261C152.907 299.925 152.509 301.153 151.712 301.946C150.916 302.699 149.881 303.075 148.607 303.075H140.425L140.484 353.24C140.484 354.746 140.046 355.895 139.17 356.688C138.294 357.441 137.08 357.817 135.527 357.817H122.03C118.964 357.817 117.431 356.292 117.431 353.24L117.371 303.075H111.22C108.154 303.075 106.621 301.47 106.621 298.261V286.789C106.621 283.778 108.154 282.272 111.22 282.272H117.371L117.431 270.563Z" stroke="black" stroke-width="16" mask="url(#path-3-outside-1_447_14)"/>
<path d="M238.289 356.807C237.771 357.243 237.214 357.52 236.616 357.639C236.059 357.758 235.521 357.817 235.004 357.817H225.986C225.269 357.817 224.652 357.698 224.134 357.461C223.617 357.183 223.179 356.827 222.82 356.391C222.462 355.955 222.163 355.459 221.924 354.905C221.685 354.35 221.486 353.775 221.327 353.181L220.073 347.356C219.476 348.585 218.48 349.892 217.087 351.279C215.693 352.626 213.961 353.874 211.891 355.024C209.86 356.173 207.511 357.124 204.843 357.877C202.176 358.629 199.269 359.006 196.124 359.006C191.585 359.006 187.563 358.134 184.059 356.391C180.556 354.647 177.589 352.27 175.161 349.258C172.772 346.247 170.96 342.74 169.726 338.738C168.491 334.696 167.874 330.397 167.874 325.84V306.374V286.908C167.874 285.403 168.193 284.273 168.83 283.52C169.507 282.728 170.562 282.332 171.995 282.332H185.791C187.503 282.332 188.678 282.629 189.315 283.223C189.952 283.778 190.271 284.887 190.271 286.552V325.245C190.271 326.949 190.589 328.574 191.226 330.119C191.903 331.625 192.799 332.972 193.914 334.161C195.029 335.31 196.323 336.222 197.796 336.895C199.309 337.569 200.902 337.906 202.574 337.906C204.007 337.906 205.56 337.668 207.232 337.192C208.905 336.717 210.457 335.984 211.891 334.993C213.324 333.963 214.519 332.655 215.474 331.07C216.43 329.485 216.908 327.583 216.908 325.364V286.73C216.908 286.056 217.027 285.383 217.266 284.709C217.545 284.035 217.943 283.52 218.46 283.164C218.978 282.847 219.456 282.629 219.894 282.51C220.372 282.391 220.909 282.332 221.506 282.332H235.004C236.716 282.332 237.95 282.748 238.707 283.58C239.463 284.412 239.841 285.521 239.841 286.908V353.419C239.841 354.172 239.662 354.865 239.304 355.499C238.985 356.133 238.528 356.628 237.93 356.985L238.289 356.807Z" stroke="black" stroke-width="16" mask="url(#path-3-outside-1_447_14)"/>
<path d="M311.217 350.387C310.142 351.457 308.908 352.527 307.515 353.597C306.161 354.627 304.668 355.559 303.035 356.391C301.443 357.223 299.711 357.896 297.839 358.412C296.008 358.927 294.057 359.184 291.986 359.184C286.571 359.184 281.575 358.174 276.996 356.153C272.457 354.132 268.535 351.378 265.23 347.891C261.965 344.364 259.397 340.224 257.526 335.469C255.694 330.714 254.778 325.602 254.778 320.134C254.778 314.626 255.694 309.514 257.526 304.799C259.397 300.044 261.965 295.923 265.23 292.436C268.535 288.909 272.457 286.155 276.996 284.174C281.575 282.153 286.571 281.143 291.986 281.143C294.176 281.143 296.167 281.341 297.959 281.737C299.79 282.094 301.443 282.629 302.916 283.342C304.429 284.055 305.802 284.907 307.037 285.898C308.311 286.888 309.505 287.978 310.62 289.167V264.381C310.62 263.113 310.998 262.044 311.755 261.172C312.551 260.3 313.726 259.864 315.279 259.864H328.716C329.234 259.864 329.772 259.983 330.329 260.221C330.926 260.419 331.464 260.716 331.942 261.112C332.419 261.509 332.798 261.984 333.076 262.539C333.395 263.094 333.554 263.708 333.554 264.381V353.24C333.554 356.292 331.942 357.817 328.716 357.817H317.011C316.214 357.817 315.597 357.718 315.159 357.52C314.721 357.322 314.343 357.044 314.024 356.688C313.746 356.292 313.487 355.816 313.248 355.261C313.009 354.667 312.711 353.993 312.352 353.24L311.217 350.387ZM276.279 320.134C276.279 322.749 276.677 325.206 277.473 327.504C278.31 329.763 279.484 331.724 280.997 333.388C282.51 335.053 284.322 336.38 286.432 337.371C288.582 338.322 290.951 338.797 293.539 338.797C296.087 338.797 298.476 338.341 300.706 337.43C302.976 336.519 304.946 335.271 306.619 333.686C308.291 332.061 309.625 330.159 310.62 327.98C311.655 325.8 312.233 323.462 312.352 320.966V320.134C312.352 317.598 311.874 315.181 310.919 312.882C309.963 310.584 308.629 308.563 306.917 306.82C305.245 305.076 303.254 303.709 300.945 302.719C298.675 301.688 296.207 301.173 293.539 301.173C290.951 301.173 288.582 301.688 286.432 302.719C284.322 303.709 282.51 305.076 280.997 306.82C279.484 308.563 278.31 310.584 277.473 312.882C276.677 315.181 276.279 317.598 276.279 320.134Z" stroke="black" stroke-width="16" mask="url(#path-3-outside-1_447_14)"/>
<path d="M348.633 286.968C348.633 285.7 348.991 284.61 349.708 283.699C350.425 282.787 351.539 282.332 353.052 282.332H366.729C367.207 282.332 367.725 282.45 368.282 282.688C368.839 282.886 369.357 283.203 369.835 283.639C370.313 284.035 370.711 284.511 371.029 285.066C371.388 285.62 371.567 286.254 371.567 286.968V353.24C371.567 354.746 371.149 355.895 370.313 356.688C369.477 357.441 368.282 357.817 366.729 357.817H353.052C350.106 357.817 348.633 356.292 348.633 353.24V320.104V286.968ZM348.633 256.892C348.633 255.228 348.991 254.059 349.708 253.386C350.425 252.672 351.539 252.316 353.052 252.316H366.908C368.302 252.316 369.417 252.672 370.253 253.386C371.129 254.059 371.567 255.228 371.567 256.892V268.483C371.567 268.958 371.447 269.473 371.208 270.028C371.009 270.583 370.711 271.118 370.313 271.633C369.914 272.148 369.417 272.584 368.82 272.94C368.262 273.257 367.625 273.416 366.908 273.416H353.052C350.106 273.416 348.633 271.772 348.633 268.483V256.892Z" stroke="black" stroke-width="16" mask="url(#path-3-outside-1_447_14)"/>
<path d="M386.548 320.134C386.548 316.488 387.006 312.981 387.921 309.613C388.877 306.245 390.191 303.135 391.863 300.282C393.575 297.389 395.606 294.774 397.955 292.436C400.344 290.058 402.992 288.038 405.898 286.373C408.805 284.709 411.93 283.421 415.275 282.51C418.659 281.599 422.183 281.143 425.846 281.143C431.261 281.143 436.337 282.153 441.075 284.174C445.853 286.155 449.994 288.909 453.498 292.436C457.042 295.923 459.829 300.044 461.859 304.799C463.93 309.514 464.965 314.626 464.965 320.134C464.965 323.779 464.487 327.286 463.532 330.654C462.616 333.983 461.302 337.093 459.59 339.986C457.918 342.879 455.887 345.514 453.498 347.891C451.149 350.229 448.521 352.25 445.614 353.954C442.708 355.618 439.582 356.906 436.238 357.817C432.933 358.729 429.469 359.184 425.846 359.184C422.183 359.184 418.659 358.729 415.275 357.817C411.93 356.906 408.805 355.618 405.898 353.954C402.992 352.25 400.344 350.229 397.955 347.891C395.606 345.514 393.575 342.879 391.863 339.986C390.191 337.093 388.877 333.983 387.921 330.654C387.006 327.286 386.548 323.779 386.548 320.134ZM408.347 320.134C408.347 322.749 408.745 325.206 409.541 327.504C410.377 329.763 411.532 331.724 413.005 333.388C414.518 335.053 416.33 336.38 418.44 337.371C420.59 338.322 422.999 338.797 425.667 338.797C428.255 338.797 430.584 338.322 432.654 337.371C434.765 336.38 436.536 335.053 437.97 333.388C439.443 331.724 440.558 329.763 441.314 327.504C442.111 325.206 442.509 322.749 442.509 320.134C442.509 317.598 442.111 315.181 441.314 312.882C440.558 310.584 439.443 308.563 437.97 306.82C436.536 305.076 434.765 303.709 432.654 302.719C430.584 301.688 428.255 301.173 425.667 301.173C422.999 301.173 420.59 301.688 418.44 302.719C416.33 303.709 414.518 305.076 413.005 306.82C411.532 308.563 410.377 310.584 409.541 312.882C408.745 315.181 408.347 317.598 408.347 320.134Z" stroke="black" stroke-width="16" mask="url(#path-3-outside-1_447_14)"/>
</svg>
